PathFileType	4	(X/Y/Z)	C:/Users/opensim2020/Desktop/walking_exp_matlab/subject01/subject01_trc/subject01_walking17_run_cyclic.trc	
DataRate	CameraRate	NumFrames	NumMarkers	Units	OrigDataRate	OrigDataStartFrame	OrigNumFrames	
100.00	100.00	8	61	mm	100.00	284	58	
Frame#	Time	LTHI			LKNE			RELB			STRN			RWRA			LSHO			RFRM			RUPA			RSHO			RASI			RBHD			RFIN			LFHD			RFHD			CLAV			LHEE			RWRB			LASI			LBHD			LWRA			LTIB			RTHI			LWRB			LTOE			RKNE			C7			LFRM			LFIN			LUPA			LELB			RTIB			RTOE			RBAK			RANK			T10			LPSI			LANK			RHEE			RPSI			*39			*40			*41			*42			*43			*44			*45			*46			*47			*48			*49			*50			*51			*52			*53			*54			*55			*56			*57			*58			*59			*60			
		X1	Y1	Z1	X2	Y2	Z2	X3	Y3	Z3	X4	Y4	Z4	X5	Y5	Z5	X6	Y6	Z6	X7	Y7	Z7	X8	Y8	Z8	X9	Y9	Z9	X10	Y10	Z10	X11	Y11	Z11	X12	Y12	Z12	X13	Y13	Z13	X14	Y14	Z14	X15	Y15	Z15	X16	Y16	Z16	X17	Y17	Z17	X18	Y18	Z18	X19	Y19	Z19	X20	Y20	Z20	X21	Y21	Z21	X22	Y22	Z22	X23	Y23	Z23	X24	Y24	Z24	X25	Y25	Z25	X26	Y26	Z26	X27	Y27	Z27	X28	Y28	Z28	X29	Y29	Z29	X30	Y30	Z30	X31	Y31	Z31	X32	Y32	Z32	X33	Y33	Z33	X34	Y34	Z34	X35	Y35	Z35	X36	Y36	Z36	X37	Y37	Z37	X38	Y38	Z38	X39	Y39	Z39	X40	Y40	Z40	X41	Y41	Z41	X42	Y42	Z42	X43	Y43	Z43	X44	Y44	Z44	X45	Y45	Z45	X46	Y46	Z46	X47	Y47	Z47	X48	Y48	Z48	X49	Y49	Z49	X50	Y50	Z50	X51	Y51	Z51	X52	Y52	Z52	X53	Y53	Z53	X54	Y54	Z54	X55	Y55	Z55	X56	Y56	Z56	X57	Y57	Z57	X58	Y58	Z58	X59	Y59	Z59	X60	Y60	Z60	X61	Y61	Z61	

1	0.000	-530.19348	-1286.78455	715.54004	-509.91138	-1215.38306	604.21887	-138.45071	-1376.32202	1038.20825	-411.32434	-1312.78137	1164.09473	-317.02057	-1226.21716	1126.08105	-534.75146	-1388.78772	1378.03064	-225.70866	-1281.79041	1040.24622	-134.01413	-1382.10278	1168.88708	-238.87939	-1343.84387	1357.73901	-264.90726	-1452.00903	905.27478	-286.28226	-1413.60791	1579.53650	-344.99106	-1152.10034	1127.73535	-418.92941	-1334.41467	1645.22400	-309.86374	-1310.67224	1648.20679	-393.90155	-1313.93311	1325.46570	-416.65298	-1375.67285	192.25594	-307.81650	-1199.65247	1078.68140	-472.16858	-1432.14648	931.40967	-402.65402	-1437.66370	1580.48706	-725.53247	-1550.37646	1018.19568	-520.97699	-1272.05725	423.90344	-221.05144	-1615.61719	593.84479	-756.47809	-1600.27063	1020.35651	-464.27704	-1208.97217	106.50726	-246.54607	-1678.77637	448.35941	-364.92542	-1447.30469	1414.37000	-736.39850	-1620.06873	1142.22180	-777.68195	-1551.69189	953.33032	-630.60095	-1526.11792	1323.75195	-692.97668	-1642.77759	1256.40112	-237.62224	-1822.40198	345.53064	-321.28946	-1952.37256	39.24480	-272.18011	-1521.26184	1243.67065	-277.80753	-1961.76440	186.89265	-358.13852	-1552.28101	1147.46497	-438.72919	-1613.41162	959.17444	-472.15973	-1343.31042	231.48405	-326.20071	-2003.30310	214.77571	-299.05356	-1622.54688	955.34503	-3101.76685	1973.19556	1023.43457	-3140.72290	2012.56042	1022.08130	-470.61597	-1326.00452	203.00348	-326.23480	-1331.67651	1680.49683																																																						 
2	0.010	-530.37616	-1245.35608	713.84955	-511.15466	-1171.03467	603.52966	-138.74449	-1328.26697	1043.98877	-415.63019	-1266.85962	1169.70117	-319.47314	-1184.19250	1137.12817	-537.32593	-1344.84167	1381.97400	-227.40149	-1235.74817	1049.27588	-136.50464	-1333.42517	1175.31091	-243.41577	-1298.13855	1362.45496	-263.35254	-1403.27771	910.76678	-290.45865	-1369.03430	1583.80139	-350.33817	-1110.05005	1140.60291	-422.99771	-1289.41272	1649.00891	-313.57986	-1265.39001	1652.28613	-398.08603	-1269.66650	1330.67566	-414.64938	-1288.39502	179.00070	-311.72006	-1157.04321	1090.37646	-470.24591	-1383.24329	936.33527	-407.01370	-1393.21826	1584.89014	-725.61481	-1504.64221	1022.44733	-521.44983	-1211.18872	417.45889	-220.24939	-1573.75427	601.43158	-756.53223	-1554.60181	1023.77045	-459.61816	-1116.18604	105.34009	-246.43248	-1640.40808	457.31638	-367.68280	-1402.15820	1418.65417	-736.98328	-1575.61902	1145.92920	-776.71478	-1505.02832	956.11554	-633.12744	-1481.87085	1328.55176	-693.57477	-1598.27063	1259.71863	-235.98845	-1785.19556	356.00125	-318.54425	-1932.60718	53.09980	-272.70609	-1474.14026	1249.39539	-273.74591	-1928.96985	202.58179	-357.38428	-1505.15295	1151.18408	-438.09442	-1564.47900	964.32471	-471.10349	-1262.97546	222.67416	-320.07690	-1969.44141	233.43105	-299.60400	-1572.28235	961.33807	-3101.95337	1973.03308	1023.41718	-3140.68140	2012.50928	1022.14728				-329.93152	-1286.01636	1685.41821	-469.26538	-1240.90234	192.49164																																																			 
3	0.020	-530.06897	-1203.06567	710.60089	-511.97495	-1128.26636	599.13739	-137.85036	-1281.91296	1049.01526	-419.75723	-1220.99817	1174.58472	-321.05399	-1142.83191	1143.95935	-540.02283	-1301.19836	1384.81909	-227.74440	-1191.49695	1055.65332	-138.16924	-1286.06238	1180.82251	-247.46582	-1252.39343	1366.18237	-262.26804	-1354.69141	915.11438	-294.63974	-1324.57373	1587.16553	-354.85458	-1069.97668	1148.32910	-427.30396	-1244.83240	1652.37842	-317.81891	-1221.18604	1655.35974	-401.63879	-1224.93799	1335.82141	-412.47662	-1204.80444	167.99252	-314.45554	-1115.33606	1097.33618	-468.57486	-1334.76978	940.21320	-411.31851	-1348.49548	1588.21326	-725.38690	-1457.04504	1023.97827	-522.30792	-1152.19165	408.78680	-219.35460	-1530.98682	608.81348	-756.42627	-1506.91125	1023.92487	-456.81799	-1028.23743	105.46562	-247.30003	-1596.14648	462.86258	-370.49686	-1357.10571	1421.90295	-737.66370	-1529.95398	1146.06775	-775.08893	-1456.58569	956.21606	-636.32434	-1437.40515	1331.53333	-695.12445	-1553.31519	1260.08765	-235.72481	-1742.84961	364.87823	-313.76349	-1907.89417	68.98392	-273.74323	-1427.61462	1253.57385	-270.87003	-1894.81567	218.91136	-357.88583	-1458.00903	1154.16016	-437.58881	-1515.61755	968.88562	-470.43246	-1184.51184	211.63666	-316.32959	-1934.08301	251.96957	-299.85089	-1521.84216	967.22528	-3101.94507	1973.14856	1023.47198	-3140.77979	2012.55017	1022.11194	-468.02896	-1159.24377	182.91943	-334.39734	-1240.95032	1689.09778																																																						 
4	0.030	-529.96991	-1160.29553	705.61493	-512.64752	-1086.88184	591.65216	-136.03842	-1237.26367	1053.58325	-423.34045	-1175.09045	1178.62000	-321.73337	-1102.20801	1146.64807	-542.98010	-1257.65942	1386.56873	-227.13394	-1148.77002	1059.31970	-138.97551	-1239.83105	1185.27979	-251.02974	-1206.58130	1369.14185	-261.89563	-1306.16846	918.53430	-298.85672	-1280.14722	1589.88245	-358.11313	-1029.57104	1150.50769	-431.35504	-1200.18689	1655.31030	-321.79810	-1176.93372	1658.39575	-405.48853	-1180.21729	1339.48035	-409.90054	-1124.52393	158.18779	-315.87012	-1074.67261	1099.79114	-467.56241	-1286.36499	942.70013	-415.56897	-1304.18127	1591.01929	-724.58929	-1407.48157	1022.61023	-523.19666	-1095.91187	398.54877	-218.62215	-1485.94006	614.96210	-756.04822	-1457.36646	1021.19867	-455.64075	-945.89221	106.73312	-248.66376	-1548.40723	464.55240	-373.43185	-1312.39929	1424.23035	-738.71130	-1483.19788	1143.13342	-772.59583	-1404.64758	952.95300	-640.16528	-1392.81775	1332.41504	-697.32507	-1507.87097	1257.07813	-235.52350	-1698.82605	372.72446	-309.23837	-1877.54797	84.81539	-275.28738	-1381.89990	1255.78638	-269.06964	-1859.29358	235.41182	-358.94943	-1411.50159	1156.79663	-437.17300	-1466.57117	972.91138	-469.79218	-1108.76538	199.03320	-315.40939	-1897.98450	268.89758	-299.73434	-1471.49902	973.00732	-3102.03149	1973.16443	1023.43079	-3140.81860	2012.40955	1022.11127				-338.85492	-1196.17944	1691.78992	-466.86124	-1082.15710	174.63657																																																			 
5	0.040	-530.22070	-1116.67468	698.82867	-512.83954	-1046.86914	580.84943	-133.46590	-1194.47290	1057.75989	-426.29993	-1129.30273	1181.84570	-322.40359	-1061.28418	1145.11072	-546.33264	-1214.02661	1387.30615	-225.86903	-1107.64868	1060.33728	-138.78792	-1194.82202	1188.54041	-253.84563	-1160.85510	1371.63892	-262.05658	-1257.50513	921.29987	-303.13632	-1235.82996	1592.17163	-360.58673	-988.87097	1146.90833	-435.43588	-1155.89587	1657.69592	-325.91025	-1132.70642	1660.89722	-409.26270	-1135.31921	1342.31836	-407.92670	-1050.17090	149.99342	-316.39575	-1034.54553	1097.87720	-467.62473	-1238.16492	943.75183	-419.87051	-1259.58630	1593.13110	-723.67737	-1355.77869	1018.93018	-523.75830	-1042.54761	387.20291	-218.15944	-1436.06189	618.35156	-755.20215	-1405.55798	1015.56665	-456.30615	-869.94781	108.82858	-249.23477	-1498.38135	465.41940	-376.44382	-1268.06433	1425.93616	-739.94775	-1435.30188	1137.44934	-769.45441	-1351.17725	947.72772	-644.38312	-1348.07678	1330.74158	-699.96295	-1461.79077	1251.23083	-235.80507	-1652.96887	379.59113	-306.21277	-1843.76990	101.04679	-277.46838	-1336.89709	1256.37134	-268.74756	-1820.27197	251.12672	-360.31622	-1365.33093	1158.75598	-436.97168	-1417.33496	976.20557	-468.82474	-1035.93469	185.32202	-314.87109	-1859.18518	286.06161	-299.41010	-1421.33020	978.35046	-3101.93604	1973.16284	1023.49017	-3140.75244	2012.49756	1022.00775	-465.67093	-1010.48566	167.60211	-343.15182	-1151.58313	1694.18420																																																						 
6	0.050	-530.88660	-1072.62317	689.74597	-513.32922	-1007.88593	568.64215	-130.31416	-1153.93726	1061.64795	-428.50128	-1083.42603	1184.21265	-322.65689	-1019.97913	1139.75574	-549.85925	-1170.03003	1387.06885	-223.75203	-1068.09607	1058.88342	-137.93788	-1151.45459	1191.04272	-256.39999	-1115.40552	1373.27051	-263.24716	-1209.15564	923.33508	-307.38263	-1191.58679	1594.07153	-361.98169	-947.97803	1137.75623	-439.34613	-1110.90869	1659.22168	-330.01547	-1088.60535	1662.78931	-412.79660	-1090.82471	1344.23218	-406.75162	-982.25854	143.44897	-315.95105	-994.83307	1091.76550	-468.18735	-1190.35205	943.54553	-424.16888	-1214.88428	1594.66797	-722.15192	-1303.04688	1013.13086	-523.74805	-992.84442	376.18542	-218.66548	-1383.38916	619.14099	-753.78461	-1352.33289	1007.59802	-457.68469	-801.32745	109.73900	-248.03128	-1447.04480	465.69080	-379.62039	-1223.52551	1426.85620	-740.59039	-1385.69751	1128.97046	-765.61823	-1295.79675	940.85309	-649.07141	-1302.29236	1326.00256	-702.82074	-1415.03967	1242.89063	-235.54211	-1606.00037	387.57114	-304.40976	-1805.97046	116.71183	-280.39554	-1292.41296	1256.31787	-269.21170	-1778.56726	266.11588	-361.85550	-1319.36584	1160.02734	-436.93457	-1368.09961	978.52362	-467.28540	-966.76495	171.93913	-315.32578	-1816.74023	302.95334	-299.04388	-1371.27673	982.98157	-3101.84058	1973.18054	1023.46973	-3140.71948	2012.47351	1021.92731				-347.47482	-1107.63464	1696.02075	-464.62799	-945.04645	161.88271																																																			 
7	0.060	-532.63312	-1028.64209	678.80750	-513.94171	-968.62524	556.47180	-126.75533	-1115.53772	1065.34583	-429.97739	-1037.46558	1185.60498	-321.88382	-978.50488	1131.10376	-553.41559	-1125.58606	1385.77087	-220.39513	-1030.28223	1055.33887	-136.75111	-1109.99536	1193.47864	-258.96439	-1070.22131	1373.84766	-265.45358	-1160.66675	924.86292	-311.69629	-1147.44617	1595.36792	-361.80258	-907.19751	1123.66345	-443.93292	-1066.85974	1660.11401	-334.35062	-1044.56470	1664.01099	-416.01175	-1046.02673	1345.71167	-405.76419	-922.59302	138.52982	-313.77484	-955.97552	1081.71692	-469.06549	-1142.83972	942.44537	-428.52753	-1170.42737	1595.48853	-719.87885	-1248.15381	1005.61700	-523.31012	-946.85626	367.54218	-218.53139	-1329.40161	617.58502	-751.52295	-1297.20361	997.71222	-458.52231	-741.94580	107.16081	-245.49188	-1393.93823	464.46799	-382.94952	-1178.91663	1427.42859	-740.85718	-1334.02319	1118.19922	-761.17426	-1238.12549	932.53760	-654.02466	-1256.06348	1318.69849	-705.77728	-1366.99548	1232.16150	-235.81044	-1557.88281	394.80072	-303.49921	-1765.49866	133.27039	-283.96207	-1248.21423	1256.49609	-270.42780	-1734.91138	281.55066	-363.64249	-1273.61804	1160.71033	-436.95984	-1319.07214	979.55853	-465.31833	-901.31012	160.93054	-317.22708	-1771.36951	319.87515	-298.94754	-1320.92297	986.16815	-3101.79004	1973.14624	1023.43005	-3140.76758	2012.47754	1022.04767	-463.98550	-887.00183	156.90823	-352.01425	-1063.84485	1696.99561																																																						 
8	0.070	-533.88831	-985.45990	666.51410	-515.06165	-928.84039	544.66119	-122.83700	-1079.35242	1068.86023	-430.73322	-991.63116	1185.84509	-320.16022	-937.74939	1118.70984	-556.96277	-1080.62024	1383.35242	-215.78166	-994.25269	1050.00403	-135.57661	-1070.70349	1196.50293	-261.44016	-1025.22302	1373.62451	-266.92892	-1111.37634	925.96460	-316.01776	-1103.63489	1595.74341	-359.69788	-867.57953	1105.50513	-448.37006	-1022.64288	1660.05554	-338.75760	-1000.81726	1664.42859	-418.64841	-1001.41919	1346.31116	-404.20215	-872.17133	133.02827	-309.75552	-918.10431	1068.49268	-470.62027	-1094.39148	940.90186	-432.97037	-1126.20044	1595.34607	-716.90149	-1191.24829	996.64276	-522.77069	-903.00360	360.04703	-217.79176	-1273.92749	614.56268	-748.55853	-1239.93042	986.11981	-458.43460	-692.65704	101.27421	-242.45221	-1338.08057	461.50003	-386.51990	-1134.18909	1427.47095	-740.85645	-1280.37756	1105.35742	-756.01971	-1178.25232	923.12225	-658.90833	-1208.88440	1309.06299	-709.06946	-1317.60657	1219.01868	-235.67743	-1506.77661	400.82767	-301.32861	-1722.72961	149.10553	-287.65057	-1204.11487	1256.78723	-272.45074	-1687.58789	296.68884	-365.75922	-1227.98206	1160.78943	-437.20096	-1270.54968	978.98578	-463.24985	-837.99097	151.06998	-320.46335	-1722.37231	335.90002	-299.12543	-1271.11597	988.20245	-3102.00220	1973.19080	1023.36096	-3140.64624	2012.52258	1022.13226				-356.48120	-1020.17017	1697.64514																																																						 
